<svg width="200" height="200" viewBox="0 0 200 200" fill="none" xmlns="http://www.w3.org/2000/svg">
<path d="M156.553 17.5271C137.905 4.7403 115.475 -1.34966 92.9213 0.250852C70.3677 1.85136 49.0221 11.0479 32.3672 26.3399C15.7124 41.6319 4.73148 62.1168 1.21606 84.4522C-2.29935 106.788 1.85826 129.655 13.0106 149.324C24.1629 168.992 41.6515 184.301 62.6232 192.752C83.5948 201.203 106.811 202.298 128.485 195.857C150.159 189.417 169.01 175.821 181.963 157.289C194.917 138.757 201.207 116.382 199.809 93.8146L180.295 95.0239C181.42 113.179 176.359 131.179 165.938 146.088C155.518 160.997 140.352 171.935 122.916 177.116C105.48 182.297 86.8022 181.417 69.9308 174.618C53.0594 167.819 38.99 155.504 30.0181 139.68C21.0462 123.857 17.7015 105.461 20.5296 87.492C23.3577 69.5234 32.1917 53.0436 45.5903 40.7414C58.9889 28.4391 76.1612 21.0407 94.3053 19.7531C112.449 18.4655 130.494 23.3648 145.496 33.6516L156.553 17.5271Z" fill="white"/>
<path d="M99.938 150C111.243 150.014 122.219 146.196 131.076 139.17C139.932 132.144 146.146 122.323 148.704 111.311C151.261 100.299 150.011 88.7452 145.158 78.5348C140.305 68.3244 132.134 60.0602 121.98 55.0904C111.826 50.1206 100.287 48.7387 89.2464 51.1701C78.2058 53.6015 68.315 59.7028 61.1878 68.4783C54.0606 77.2539 50.1178 88.1858 50.0026 99.4904C49.8873 110.795 53.6066 121.805 60.5534 130.724L68.2657 124.717C62.6771 117.542 59.685 108.684 59.7777 99.59C59.8704 90.4956 63.0424 81.7011 68.7761 74.6412C74.5098 67.5814 82.4668 62.673 91.3489 60.717C100.231 58.7609 109.514 59.8727 117.683 63.8708C125.852 67.8689 132.425 74.5174 136.329 82.7315C140.233 90.9457 141.239 100.241 139.182 109.1C137.124 117.959 132.125 125.859 125 131.512C117.875 137.164 109.045 140.236 99.9501 140.224L99.938 150Z" fill="white"/>
</svg>
