<svg width="138" height="30" viewBox="0 0 138 30" fill="none" xmlns="http://www.w3.org/2000/svg">
<path d="M0 1C0 0.447716 0.447715 0 1 0H35.7398C36.3839 0 36.86 0.599993 36.7136 1.22723L30.1803 29.2272C30.0747 29.6798 29.6712 30 29.2065 30H1C0.447716 30 0 29.5523 0 29V1Z" fill="#222222"/>
<path d="M9.776 24V6.96H21.224V9.864H13.088V14.256H19.856V16.944H13.088V24H9.776Z" fill="white"/>
<path d="M39.168 26.192C38.144 26.192 37.312 25.872 36.672 25.232C36.0533 24.592 35.744 23.632 35.744 22.352C35.744 21.8187 35.8293 21.1253 36 20.272L38.176 10H42.784L40.48 20.88C40.416 21.2 40.384 21.4987 40.384 21.776C40.384 22.6507 40.704 23.088 41.344 23.088C41.9413 23.088 42.4533 22.8427 42.88 22.352C43.3067 21.84 43.648 21.1467 43.904 20.272L46.08 10H50.688L48.384 20.88C48.2987 21.2 48.256 21.5413 48.256 21.904C48.256 22.3307 48.352 22.64 48.544 22.832C48.7573 23.0027 49.0987 23.088 49.568 23.088C50.1653 23.088 50.6773 22.832 51.104 22.32C51.552 21.808 51.904 21.1253 52.16 20.272H53.504C52.7147 22.576 51.7333 24.144 50.56 24.976C49.408 25.7867 48.2453 26.192 47.072 26.192C46.1547 26.192 45.4187 25.936 44.864 25.424C44.3307 24.912 44.0107 24.1547 43.904 23.152C43.1787 24.3253 42.4107 25.1253 41.6 25.552C40.8107 25.9787 40 26.192 39.168 26.192ZM54.3323 10H58.9403L58.5243 11.984C59.2496 11.344 59.9003 10.8533 60.4763 10.512C61.0736 10.1707 61.7136 10 62.3963 10C63.0789 10 63.6123 10.2347 63.9963 10.704C64.4016 11.1733 64.6043 11.7387 64.6043 12.4C64.6043 13.0187 64.4016 13.5627 63.9963 14.032C63.5909 14.5013 63.0256 14.736 62.3003 14.736C61.8309 14.736 61.5109 14.6293 61.3403 14.416C61.1909 14.1813 61.0736 13.8507 60.9883 13.424C60.9243 13.1467 60.8603 12.944 60.7963 12.816C60.7323 12.688 60.6149 12.624 60.4443 12.624C59.9963 12.624 59.6123 12.72 59.2923 12.912C58.9936 13.0827 58.5989 13.392 58.1083 13.84L55.5483 26H50.9402L54.3323 10ZM75.7395 26.192C74.4382 26.192 73.4782 25.8507 72.8595 25.168C72.2622 24.464 71.9635 23.6 71.9635 22.576C71.9635 22.128 72.0168 21.6267 72.1235 21.072C72.2302 20.496 72.3368 19.9413 72.4435 19.408C72.5715 18.8747 72.6568 18.5333 72.6995 18.384C72.8702 17.6373 73.0302 16.9013 73.1795 16.176C73.3288 15.4507 73.4035 14.864 73.4035 14.416C73.4035 13.328 73.0195 12.784 72.2515 12.784C71.6968 12.784 71.2062 13.0613 70.7795 13.616C70.3528 14.1493 70.0115 14.8533 69.7555 15.728L67.5795 26H62.9715L66.3635 10H70.9715L70.6195 11.664C71.6862 10.4693 72.9342 9.872 74.3635 9.872C75.4515 9.872 76.3155 10.1707 76.9555 10.768C77.5955 11.3653 77.9155 12.272 77.9155 13.488C77.9155 14.1067 77.8408 14.8 77.6915 15.568C77.5422 16.3147 77.3288 17.232 77.0515 18.32C76.8808 18.9813 76.7208 19.632 76.5715 20.272C76.4435 20.8907 76.3795 21.3813 76.3795 21.744C76.3795 22.1707 76.4755 22.5013 76.6675 22.736C76.8595 22.9707 77.1902 23.088 77.6595 23.088C78.2995 23.088 78.8115 22.864 79.1955 22.416C79.5795 21.9467 79.9635 21.232 80.3475 20.272H81.6915C80.9022 22.6187 79.9848 24.1973 78.9395 25.008C77.9155 25.7973 76.8488 26.192 75.7395 26.192ZM85.6878 8.272C84.9838 8.272 84.3864 8.02667 83.8958 7.536C83.4051 7.04533 83.1598 6.448 83.1598 5.744C83.1598 5.04 83.4051 4.44267 83.8958 3.952C84.3864 3.44 84.9838 3.184 85.6878 3.184C86.3918 3.184 86.9891 3.44 87.4798 3.952C87.9918 4.44267 88.2478 5.04 88.2478 5.744C88.2478 6.448 87.9918 7.04533 87.4798 7.536C86.9891 8.02667 86.3918 8.272 85.6878 8.272ZM83.5118 26.192C82.4878 26.192 81.6558 25.872 81.0158 25.232C80.3971 24.592 80.0877 23.632 80.0877 22.352C80.0877 21.8187 80.1731 21.1253 80.3438 20.272L82.5198 10H87.1278L84.8238 20.88C84.7384 21.2 84.6958 21.5413 84.6958 21.904C84.6958 22.3307 84.7918 22.64 84.9838 22.832C85.1971 23.0027 85.5384 23.088 86.0078 23.088C86.6264 23.088 87.2024 22.832 87.7358 22.32C88.2691 21.7867 88.6531 21.104 88.8878 20.272H90.2318C89.4424 22.576 88.4291 24.144 87.1918 24.976C85.9544 25.7867 84.7278 26.192 83.5118 26.192ZM92.043 26.192C91.019 26.192 90.187 25.872 89.547 25.232C88.9283 24.592 88.619 23.632 88.619 22.352C88.619 21.8187 88.7043 21.1253 88.875 20.272L90.795 11.28H89.739L89.995 10H91.051L92.011 5.584L96.747 4.944L95.659 10H97.579L97.323 11.28H95.403L93.355 20.88C93.2697 21.2 93.227 21.5413 93.227 21.904C93.227 22.3307 93.323 22.64 93.515 22.832C93.7283 23.0027 94.0697 23.088 94.539 23.088C95.1577 23.088 95.7337 22.832 96.267 22.32C96.8003 21.7867 97.1843 21.104 97.419 20.272H98.763C97.9737 22.576 96.9603 24.144 95.723 24.976C94.4857 25.7867 93.259 26.192 92.043 26.192ZM100.574 26.192C99.5503 26.192 98.7183 25.872 98.0783 25.232C97.4596 24.592 97.1502 23.632 97.1502 22.352C97.1502 21.8187 97.2356 21.1253 97.4062 20.272L99.5823 10H104.19L101.886 20.88C101.822 21.2 101.79 21.4987 101.79 21.776C101.79 22.6507 102.11 23.088 102.75 23.088C103.348 23.088 103.86 22.8427 104.286 22.352C104.713 21.84 105.054 21.1467 105.31 20.272L107.486 10H112.094L109.79 20.88C109.705 21.2 109.662 21.5413 109.662 21.904C109.662 22.3307 109.758 22.64 109.95 22.832C110.164 23.0027 110.505 23.088 110.974 23.088C111.572 23.088 112.084 22.832 112.51 22.32C112.958 21.808 113.31 21.1253 113.566 20.272H114.91C114.121 22.576 113.14 24.144 111.966 24.976C110.814 25.7867 109.652 26.192 108.478 26.192C107.561 26.192 106.825 25.936 106.27 25.424C105.737 24.912 105.417 24.1547 105.31 23.152C104.585 24.3253 103.817 25.1253 103.006 25.552C102.217 25.9787 101.406 26.192 100.574 26.192ZM115.739 10H120.347L119.931 11.984C120.656 11.344 121.307 10.8533 121.883 10.512C122.48 10.1707 123.12 10 123.803 10C124.485 10 125.019 10.2347 125.403 10.704C125.808 11.1733 126.011 11.7387 126.011 12.4C126.011 13.0187 125.808 13.5627 125.403 14.032C124.997 14.5013 124.432 14.736 123.707 14.736C123.237 14.736 122.917 14.6293 122.747 14.416C122.597 14.1813 122.48 13.8507 122.395 13.424C122.331 13.1467 122.267 12.944 122.203 12.816C122.139 12.688 122.021 12.624 121.851 12.624C121.403 12.624 121.019 12.72 120.699 12.912C120.4 13.0827 120.005 13.392 119.515 13.84L116.955 26H112.346L115.739 10ZM130.106 26.192C128.548 26.192 127.332 25.7867 126.458 24.976C125.583 24.144 125.146 22.8533 125.146 21.104C125.146 19.632 125.434 18.0107 126.01 16.24C126.586 14.4693 127.524 12.944 128.826 11.664C130.127 10.3627 131.78 9.712 133.786 9.712C136.132 9.712 137.306 10.736 137.306 12.784C137.306 13.9787 136.964 15.0773 136.282 16.08C135.599 17.0827 134.692 17.8933 133.562 18.512C132.431 19.1093 131.226 19.4507 129.946 19.536C129.903 20.0053 129.882 20.3253 129.882 20.496C129.882 22.2667 130.543 23.152 131.866 23.152C132.463 23.152 133.103 22.992 133.786 22.672C134.468 22.352 135.087 21.9467 135.642 21.456C135.066 24.6133 133.22 26.192 130.106 26.192ZM130.17 18C130.98 17.9787 131.738 17.712 132.442 17.2C133.167 16.688 133.743 16.0373 134.17 15.248C134.618 14.4373 134.842 13.5947 134.842 12.72C134.842 11.8453 134.575 11.408 134.042 11.408C133.295 11.408 132.548 12.0907 131.802 13.456C131.076 14.8 130.532 16.3147 130.17 18Z" fill="#222222"/>
</svg>
