<svg xmlns="http://www.w3.org/2000/svg" version="1.1" xmlns:xlink="http://www.w3.org/1999/xlink" xmlns:svgjs="http://svgjs.dev/svgjs" width="1000" height="1125" viewBox="0 0 1000 1125"><g transform="matrix(1,0,0,1,1.7053025658242404e-13,0)"><svg viewBox="0 0 320 360" data-background-color="#ffa458" preserveAspectRatio="xMidYMid meet" height="1125" width="1000" xmlns="http://www.w3.org/2000/svg" xmlns:xlink="http://www.w3.org/1999/xlink"><g id="tight-bounds" transform="matrix(1,0,0,1,0,0)"><svg viewBox="0 0 320 360" height="360" width="320"><g><svg></svg></g><g><svg viewBox="0 0 320 360" height="360" width="320"><g><path xmlns="http://www.w3.org/2000/svg" d="M20.961 227.22l3.726 4.658-1.863-6.056c-0.466-2.795-3.726 0.466-1.863 1.398M25.153 224.425c1.397 2.329 2.795 4.658 2.795 6.987 0 3.261 2.795 4.658 5.123 5.589-3.261-3.726-5.124-13.974-7.918-12.576M204.017 26.929c7.918 0 15.371-0.932 23.756 0.931 20.495 5.124 37.729 15.371 49.374 29.811l32.606 52.169c1.397 13.042 4.192 27.482 3.726 43.319 3.261 0 2.795-4.658 6.521-5.59-3.726 9.316-5.59 20.961-6.521 34.469-2.329-7.453 0-18.632 0.466-24.687-3.261 5.124-5.124 1.397-5.124-0.932 0.466-3.726-1.397-3.261-2.795-4.658-5.124-4.658-8.384-9.782-12.11-17.7 2.329-6.055 2.795-14.905-4.658-19.563-2.329-1.397-5.124-3.726-6.521-7.453-1.863-5.124-5.124-11.179-4.193-19.097 0.466-2.329-6.987 5.124-11.179 1.863-18.166-12.576-36.332-27.016-58.224-39.127-11.645 0-20.029-4.192-24.221-9.316-3.726-4.658-0.932-10.713 4.658-11.179 3.261 0 6.987-0.932 9.782 0.932 0.466-1.863 2.329-4.192 4.657-4.192M157.904 16.215l0.932 0.466c4.658 0.932 6.987 7.453 12.11 5.124 0 3.261 0.466 6.521-0.466 8.85-1.397 3.726-5.59 3.726-8.85 3.726-31.208-1.863-49.374 11.179-68.471 22.358-5.124 3.261-10.713 5.59-14.906 9.782-20.029 18.632-41.921 35.866-47.045 70.335l-4.192 38.195c-0.466 4.192-5.124 8.384-4.192 13.508l3.26 22.824c-3.261-3.261-5.124 0.932-4.192 2.795 0.466 1.397 2.329 6.055 5.124 1.863 3.726 6.987 7.453 20.495 12.576 26.55 15.837 18.632 36.332 35.4 53.101 52.169 4.192-0.932 7.453-0.932 8.384-3.727 1.397 2.795-1.397 5.59-3.726 6.056 7.453 4.658 15.837 8.85 27.016 9.781 14.44 0.932 27.948 3.261 40.524 6.522 6.521-1.863 13.042-2.795 20.029-3.261 2.329 0 3.726-3.726 6.521-4.658l0.466-4.658c2.795 4.192 2.329-1.397 0.466-4.192 3.261 2.795 4.192 5.124 5.589 6.987 0-1.397 3.726-6.521 3.727-0.466l0.931-6.055c1.397-0.932 1.863 5.124 3.261 0.931 1.397-4.192 4.192-0.932 6.987-2.329-0.932 1.863-0.466 5.59 2.794 3.261l3.727-3.261c2.329 5.59 6.055 3.261 7.918 2.329 20.495-13.042 40.99-28.413 60.553-43.784l-0.466 6.055 2.329-7.453c2.329 2.329 4.192 0.466 5.124-0.931 2.795-4.658 6.521-9.316 12.577-13.508-7.453 20.029-16.303 35.866-27.482 48.908l-4.658 5.59c0 3.261-0.932 7.453-4.658 7.918-1.863 0.466-5.59-0.932-8.384 1.863-1.397 1.863 3.261 5.59-0.466 2.795-3.261-2.329-6.521 0-10.248 0.932-2.795 0.932 1.863 3.726 2.795 5.589 0.932 1.863 1.863 3.726 1.398 6.056l-5.124-5.59c-6.055 3.261-9.782 9.316-14.906 13.974-2.329 1.863-1.397 5.124-1.397 7.918-3.261 0-6.987-0.932-8.85 0.932-1.397 1.863-0.932 4.658-0.932 7.453-4.658-0.466-5.124-7.453-9.315-6.056-4.192 0.932-8.85 1.397-12.577 3.727 2.795 5.59-4.658 2.329-3.726 3.26-6.987-4.192-13.042-7.453-20.495-4.658-15.837-5.124-35.4-2.795-49.84-0.931 0-2.329 0.466-4.658-0.466-5.124-0.932 2.329-3.726 1.397-3.26 1.397-8.85-6.055-17.7-9.782-27.016-14.905-8.384 0.932-16.303-3.261-18.632-5.59-6.521-6.055-13.974-2.795-20.029-4.192-13.042-3.261-17.7-16.769-19.098-26.084-0.932-4.658-4.658-6.521-6.055-6.056-6.055-19.563-15.371-37.263-22.824-55.429-1.863-4.658-1.397-9.316-1.397-14.44 2.329 0.932 4.658 0.466 4.192-2.794-2.329-15.371-7.918-27.016-13.974-38.195 3.261-15.837 3.726-34.469 11.179-48.443 6.521-12.576 18.632-19.098 27.016-29.811 2.795-3.726 2.795-8.85 5.59-12.11 9.316-9.316 18.632-19.098 28.879-27.482 4.658-3.726 10.247 0 17.234-1.397 2.329-8.384 11.645-15.837 20.495-13.508 3.726 0.932 11.179-8.85 13.508-9.782 3.726-1.397 1.863 3.726 1.863 6.987 8.85-6.987 20.961-10.713 32.14-14.906" fill="#ea3c12" fill-rule="nonzero" stroke="none" stroke-width="1" stroke-linecap="butt" stroke-linejoin="miter" stroke-miterlimit="10" stroke-dasharray="" stroke-dashoffset="0" font-family="none" font-weight="none" font-size="none" text-anchor="none" style="mix-blend-mode: normal" data-fill-palette-color="tertiary"></path></g><g transform="matrix(1,0,0,1,64,124.76217228871923)"><svg viewBox="0 0 192 110.47565542256154" height="110.47565542256154" width="192"><g><svg viewBox="0 0 192 110.47565542256154" height="110.47565542256154" width="192"><g><svg viewBox="0 0 192 110.47565542256154" height="110.47565542256154" width="192"><g transform="matrix(1,0,0,1,0,63.107817359486134)"><svg viewBox="0 0 192 47.36783806307542" height="47.36783806307542" width="192"><g><svg viewBox="0 0 192 47.36783806307542" height="47.36783806307542" width="192"><g><svg viewBox="0 0 192 26.853672869735554" height="26.853672869735554" width="192"><g transform="matrix(1,0,0,1,0,0)"><svg width="192" viewBox="4 -35 255.23001098632812 35.70000076293945" height="26.853672869735554" data-palette-color="#ea3c12"><path d="M8.75 0L4 0 4-35 25.35-35 25.35-30.7 8.75-30.7 8.75-20.45 21.55-20.45 21.55-16.15 8.75-16.15 8.75 0ZM44.25 0.7L44.25 0.7Q39.32 0.7 36.11-1.19 32.9-3.08 31.32-6.56 29.75-10.05 29.75-14.85L29.75-14.85 29.75-35 34.5-35 34.5-16.15Q34.5-13.75 34.87-11.5 35.25-9.25 36.26-7.48 37.27-5.7 39.21-4.65 41.15-3.6 44.25-3.6L44.25-3.6Q47.37-3.6 49.3-4.65 51.22-5.7 52.23-7.49 53.25-9.28 53.62-11.53 54-13.78 54-16.15L54-16.15 54-35 58.75-35 58.75-14.85Q58.75-10.05 57.17-6.56 55.6-3.08 52.39-1.19 49.17 0.7 44.25 0.7ZM71.34 0L66.34 0 66.34-35 77.7-35Q81.34-35 84.07-33.88 86.8-32.75 88.3-30.4 89.8-28.05 89.8-24.35L89.8-24.35Q89.8-20.75 88.23-18.32 86.67-15.9 83.7-14.5L83.7-14.5 91.55 0 85.75 0 78.65-13.65Q78.57-13.65 78.52-13.65 78.47-13.65 78.4-13.65L78.4-13.65 71.34-13.65 71.34 0ZM71.34-30.75L71.34-17.9 77.65-17.9Q81.22-17.9 83.03-19.63 84.84-21.35 84.84-24.35L84.84-24.35Q84.84-27.4 83.03-29.08 81.22-30.75 77.65-30.75L77.65-30.75 71.34-30.75ZM101.24 0L96.49 0 96.49-35 101.64-35 118.89-8.8 118.89-35 123.69-35 123.69 0 119.64 0 101.24-27.65 101.24 0ZM136.44 0L131.69 0 131.69-35 136.44-35 136.44 0ZM156.14 0L151.39 0 151.39-30.7 141.19-30.7 141.19-35 166.34-35 166.34-30.7 156.14-30.7 156.14 0ZM185.19 0.7L185.19 0.7Q180.26 0.7 177.05-1.19 173.84-3.08 172.26-6.56 170.69-10.05 170.69-14.85L170.69-14.85 170.69-35 175.44-35 175.44-16.15Q175.44-13.75 175.81-11.5 176.19-9.25 177.2-7.48 178.21-5.7 180.15-4.65 182.09-3.6 185.19-3.6L185.19-3.6Q188.31-3.6 190.24-4.65 192.16-5.7 193.17-7.49 194.19-9.28 194.56-11.53 194.94-13.78 194.94-16.15L194.94-16.15 194.94-35 199.69-35 199.69-14.85Q199.69-10.05 198.11-6.56 196.54-3.08 193.32-1.19 190.11 0.7 185.19 0.7ZM212.28 0L207.28 0 207.28-35 218.63-35Q222.28-35 225.01-33.88 227.73-32.75 229.23-30.4 230.73-28.05 230.73-24.35L230.73-24.35Q230.73-20.75 229.17-18.32 227.61-15.9 224.63-14.5L224.63-14.5 232.48 0 226.68 0 219.58-13.65Q219.51-13.65 219.46-13.65 219.41-13.65 219.33-13.65L219.33-13.65 212.28-13.65 212.28 0ZM212.28-30.75L212.28-17.9 218.58-17.9Q222.16-17.9 223.97-19.63 225.78-21.35 225.78-24.35L225.78-24.35Q225.78-27.4 223.97-29.08 222.16-30.75 218.58-30.75L218.58-30.75 212.28-30.75ZM259.23 0L237.43 0 237.43-35 258.78-35 258.78-30.7 242.18-30.7 242.18-20.45 255.38-20.45 255.38-16.15 242.18-16.15 242.18-4.3 259.23-4.3 259.23 0Z" opacity="1" transform="matrix(1,0,0,1,0,0)" fill="#ea3c12" class="undefined-text-0" data-fill-palette-color="primary" id="text-0"></path></svg></g></svg></g><g transform="matrix(1,0,0,1,0,30.772268229578845)"><svg viewBox="0 0 192 16.595569833496572" height="16.595569833496572" width="192"><g transform="matrix(1,0,0,1,0,0)"><svg width="192" viewBox="4.550000190734863 -35 542.6000366210938 46.900001525878906" height="16.595569833496572" data-palette-color="#ea3c12"><path d="M14.2 0L4.55 0 4.55-35 14.55-35Q19.9-35 22.55-32.68 25.2-30.35 25.2-26.05L25.2-26.05Q25.2-23.15 23.3-21.25 21.4-19.35 18.15-18.95L18.15-18.95Q22.15-18.35 24.38-16.1 26.6-13.85 26.6-10.5L26.6-10.5Q26.6-5.75 23.33-2.88 20.05 0 14.2 0L14.2 0ZM8.45-17.15L8.45-3.25 15.4-3.25Q18.7-3.25 20.7-5.25 22.7-7.25 22.7-10.25 22.7-13.25 20.58-15.2 18.45-17.15 14.35-17.15L14.35-17.15 8.45-17.15ZM14.8-31.75L14.8-31.75 8.45-31.75 8.45-20.35 14.3-20.35Q17.05-20.35 19.18-21.88 21.3-23.4 21.3-26.1L21.3-26.1Q21.3-31.55 14.8-31.75ZM88.16-11.7L88.16-11.7 72.21-11.7Q72.21-6.9 74.48-4.9 76.76-2.9 80.21-2.9L80.21-2.9Q81.96-2.9 82.66-3.08 83.36-3.25 83.98-3.43 84.61-3.6 84.86-3.7L84.86-3.7Q86.11-4.05 87.01-4.35L87.01-4.35 87.61-1.45Q82.61 0.3 79.81 0.3L79.81 0.3Q74.66 0.3 71.56-2.83 68.46-5.95 68.46-12.23 68.46-18.5 71.38-22 74.31-25.5 78.78-25.5 83.26-25.5 85.76-22.6 88.26-19.7 88.26-14.75L88.26-14.75Q88.26-13.4 88.16-11.7ZM72.46-14.55L72.46-14.55 84.66-14.55Q84.66-18.25 83.36-20.25 82.06-22.25 78.83-22.25 75.61-22.25 74.11-20.1 72.61-17.95 72.46-14.55ZM130.31-1.65L131.21-4.45Q134.46-2.95 137.41-2.95 140.36-2.95 141.89-4.13 143.41-5.3 143.41-7.25 143.41-9.2 142.11-10.28 140.81-11.35 138.94-11.95 137.06-12.55 135.19-13.25 133.31-13.95 132.01-15.35 130.71-16.75 130.71-18.9L130.71-18.9Q130.71-22.05 132.76-23.78 134.81-25.5 138.31-25.5 141.81-25.5 144.81-24.45L144.81-24.45 145.16-24.3 144.51-21.1Q141.51-22.25 138.94-22.25 136.36-22.25 135.41-21.45 134.46-20.65 134.46-18.75L134.46-18.75Q134.46-17.55 135.76-16.7 137.06-15.85 138.94-15.23 140.81-14.6 142.69-13.78 144.56-12.95 145.86-11.3 147.16-9.65 147.16-7.25L147.16-7.25Q147.16-3.75 144.71-1.73 142.26 0.3 137.96 0.3 133.66 0.3 130.31-1.65L130.31-1.65ZM191.47-5.4L191.47-5.4 191.47-22 188.07-22 188.07-25 191.52-25 191.52-32.15 195.27-32.15 195.27-25 201.37-25 201.37-22 195.22-22 195.22-6.1Q195.22-2.75 198.62-2.75L198.62-2.75Q199.42-2.75 201.07-3.05L201.07-3.05 201.62-0.35Q199.57 0.3 197.39 0.3 195.22 0.3 193.34-1.03 191.47-2.35 191.47-5.4ZM298.23-2.05L298.23 11.9 294.48 11.9 294.48-24.95 296.68-24.95 297.98-22.15Q300.08-23.75 301.9-24.63 303.73-25.5 305.93-25.5L305.93-25.5Q314.93-25.5 314.93-12.55L314.93-12.55Q314.93-5.2 311.73-2.3L311.73-2.3Q308.88 0.35 305.25 0.35 301.63 0.35 298.23-2.05L298.23-2.05ZM298.23-18.8L298.23-18.8 298.23-5.45Q299.23-4.25 300.93-3.55 302.63-2.85 304.18-2.85L304.18-2.85Q308.08-2.85 309.63-5.15 311.18-7.45 311.18-12.35 311.18-17.25 309.63-19.75 308.08-22.25 305.68-22.25L305.68-22.25Q304.08-22.25 302.5-21.6 300.93-20.95 300.15-20.38 299.38-19.8 298.23-18.8ZM362.44 0L358.69 0 358.69-35 362.44-35 362.44 0ZM419.24-14.95L419.24-14.95 421.29-14.95Q421.29-19.5 420.14-20.88 418.99-22.25 415.04-22.25 411.09-22.25 408.34-21.2L408.34-21.2 407.64-24.1Q411.84-25.5 416.34-25.5L416.34-25.5Q425.14-25.5 425.14-16.7L425.14-16.7 425.14 0 422.94 0 421.64-2.95Q419.34-1.05 417.67-0.38 415.99 0.3 413.79 0.3L413.79 0.3Q410.29 0.3 408.34-1.78 406.39-3.85 406.39-7.25L406.39-7.25Q406.39-14.95 419.24-14.95ZM421.34-6.55L421.34-11.8 419.09-11.8Q413.99-11.8 412.07-10.8 410.14-9.8 410.14-7.68 410.14-5.55 411.24-4.2 412.34-2.85 414.12-2.85 415.89-2.85 417.52-3.68 419.14-4.5 421.34-6.55L421.34-6.55ZM485.85-3.9L485.85-3.9 486.6-0.95Q482.6 0.25 479.55 0.25L479.55 0.25Q474.2 0.25 471.5-3.25 468.8-6.75 468.8-12.9 468.8-19.05 471.6-22.28 474.4-25.5 479.85-25.5L479.85-25.5Q482.2-25.5 486.45-24.3L486.45-24.3 484.95-21.4Q482.2-22.2 480-22.2L480-22.2Q476.2-22.2 474.52-19.95 472.85-17.7 472.85-12.85L472.85-12.85Q472.85-3 479.9-3L479.9-3Q482.7-3 485.85-3.9ZM547.05-11.7L547.05-11.7 531.1-11.7Q531.1-6.9 533.38-4.9 535.65-2.9 539.1-2.9L539.1-2.9Q540.85-2.9 541.55-3.08 542.25-3.25 542.88-3.43 543.5-3.6 543.75-3.7L543.75-3.7Q545-4.05 545.9-4.35L545.9-4.35 546.5-1.45Q541.5 0.3 538.7 0.3L538.7 0.3Q533.55 0.3 530.45-2.83 527.35-5.95 527.35-12.23 527.35-18.5 530.28-22 533.2-25.5 537.68-25.5 542.15-25.5 544.65-22.6 547.15-19.7 547.15-14.75L547.15-14.75Q547.15-13.4 547.05-11.7ZM531.35-14.55L531.35-14.55 543.55-14.55Q543.55-18.25 542.25-20.25 540.95-22.25 537.73-22.25 534.5-22.25 533-20.1 531.5-17.95 531.35-14.55Z" opacity="1" transform="matrix(1,0,0,1,0,0)" fill="#ea3c12" class="undefined-text-1" data-fill-palette-color="secondary" id="text-1"></path></svg></g></svg></g></svg></g></svg></g><g transform="matrix(1,0,0,1,36.672,0)"><svg viewBox="0 0 118.656 59.18922199964285" height="59.18922199964285" width="118.656"><g><svg xmlns="http://www.w3.org/2000/svg" xmlns:xlink="http://www.w3.org/1999/xlink" version="1.1" x="0" y="0" viewBox="0.5765951871871948 25.271167755126953 98.94680786132812 49.3576774597168" enable-background="new 0 0 100 100" xml:space="preserve" height="59.18922199964285" width="118.656" class="icon-icon-0" data-fill-palette-color="accent" id="icon-0"><path d="M73.2 46.7c-1.1-0.9-1.4-2.4-0.8-3.7l0.5-1.2c0.8-1.8-0.2-3.9-2.1-4.4L69.4 37c-1.4-0.4-2.3-1.6-2.4-3L67 32.7c-0.1-2-1.9-3.4-3.8-3.1l-1.3 0.2c-1.4 0.2-2.8-0.4-3.4-1.7l-0.6-1.1c-0.9-1.7-3.2-2.3-4.8-1.1L52 26.7c-1.1 0.8-2.7 0.8-3.8 0l-1-0.8c-1.6-1.2-3.9-0.6-4.8 1.1l-0.6 1.1c-0.7 1.2-2.1 1.9-3.5 1.7l-1.3-0.2c-1.9-0.3-3.8 1.1-3.9 3.1L33 33.9c-0.1 1.4-1 2.6-2.4 3l-1.2 0.3c-1.9 0.5-2.9 2.6-2.1 4.4l0.5 1.2c0.5 1.3 0.2 2.8-0.9 3.7l-1 0.9c-1.5 1.3-1.5 3.6 0 4.9l1 0.9c1.1 0.9 1.4 2.4 0.8 3.7l-0.5 1.2c-0.8 1.8 0.2 3.9 2.1 4.4l1.2 0.4c1.4 0.4 2.3 1.6 2.4 3l0.1 1.3c0.1 2 1.9 3.4 3.8 3.1l1.3-0.2c1.4-0.2 2.8 0.4 3.4 1.7l0.6 1.1c0.9 1.7 3.2 2.3 4.8 1.1l1.1-0.8c1.1-0.8 2.7-0.8 3.8 0l1 0.8c1.6 1.2 3.9 0.6 4.8-1.1l0.6-1.1c0.7-1.2 2.1-1.9 3.5-1.7l1.3 0.2c1.9 0.3 3.8-1.1 3.9-3.1l0.1-1.3c0.1-1.4 1-2.6 2.4-3l1.2-0.3c1.9-0.5 2.9-2.6 2.1-4.4l-0.5-1.2c-0.5-1.3-0.2-2.8 0.9-3.7l1-0.9c1.5-1.3 1.5-3.6 0-4.9L73.2 46.7zM50 66.1c-8.9 0-16.1-7.2-16.1-16.1 0-8.9 7.2-16.1 16.1-16.1 8.9 0 16.1 7.2 16.1 16.1C66.1 58.9 58.9 66.1 50 66.1zM61.6 50c0 6.4-5.2 11.6-11.6 11.6-6.4 0-11.6-5.2-11.6-11.6S43.6 38.4 50 38.4C56.4 38.4 61.6 43.6 61.6 50zM99.2 56.5c0.4 0.5 0.1 1.3-0.6 1.3H77.7c-0.1-0.5-0.2-1-0.4-1.4l-0.1-0.1 0.1-0.1c1.8-1.5 2.8-3.8 2.8-6.1 0-2.3-1-4.6-2.7-6.1l-0.1-0.1 0.1-0.1c0.2-0.5 0.4-1 0.5-1.6h20.8c0.7 0 1.1 0.8 0.6 1.3l-5 6.3c-0.2 0.2-0.2 0.5 0 0.7L99.2 56.5zM19.9 49.9c0 2.3 1 4.6 2.7 6.1l0.1 0.1-0.1 0.1c-0.2 0.5-0.4 1-0.5 1.6H1.4c-0.7 0-1.1-0.8-0.6-1.3l5-6.3c0.2-0.2 0.2-0.5 0-0.7l-5-6.1c-0.4-0.5-0.1-1.3 0.6-1.3h20.9c0.1 0.5 0.2 1 0.4 1.4l0.1 0.1-0.1 0.1C20.9 45.3 19.9 47.6 19.9 49.9z" fill="#ea3c12" data-fill-palette-color="accent"></path></svg></g></svg></g><g></g></svg></g></svg></g></svg></g></svg></g><defs></defs></svg><rect width="320" height="360" fill="none" stroke="none" visibility="hidden"></rect></g></svg></g></svg>